HIERARCHY
ROOT center
{
	OFFSET 0.0 0.0 0.0
	CHANNELS 6 Xposition Yposition Zposition Zrotation Yrotation Xrotation
	JOINT left_hip
	{
		OFFSET 0.0 0.0 0.0
		CHANNELS 3 Zrotation Yrotation Xrotation
		JOINT left_knee
		{
			OFFSET 5.841220 -8.074988 -1.681093
			CHANNELS 3 Zrotation Yrotation Xrotation
			JOINT left_ankle
			{
				OFFSET 4.424825 -39.628194 0.795888
				CHANNELS 3 Zrotation Yrotation Xrotation
				JOINT left_feet
				{
					OFFSET -1.888501 -43.283612 -3.945449
					CHANNELS 3 Zrotation Yrotation Xrotation
					End Site
					{
						OFFSET 4.529286 -5.872662 11.731700
					}
				}
			}
		}
	}
	JOINT right_hip
	{
		OFFSET 0.0 0.0 0.0
		CHANNELS 3 Zrotation Yrotation Xrotation
		JOINT right_knee
		{
			OFFSET -6.039430 -8.904412 -1.389475
			CHANNELS 3 Zrotation Yrotation Xrotation
			JOINT right_ankle
			{
				OFFSET -4.543968 -39.349317 -0.420984
				CHANNELS 3 Zrotation Yrotation Xrotation
				JOINT right_feet
				{
					OFFSET 2.155471 -42.631795 -3.565529
					CHANNELS 3 Zrotation Yrotation Xrotation
					End Site
					{
						OFFSET -3.792260 -6.520381 12.520051
					}
				}
			}
		}
	}
	JOINT spine1
	{
		OFFSET 0.0 0.0 0.0
		CHANNELS 3 Zrotation Yrotation Xrotation
		JOINT spine2
		{
			OFFSET 0.484239 12.422549 -4.429257
			CHANNELS 3 Zrotation Yrotation Xrotation
			JOINT neck
			{
				OFFSET 0.468670 13.069893 3.670202
				CHANNELS 3 Zrotation Yrotation Xrotation
				JOINT head1
				{
					OFFSET -0.321492 5.345386 0.366822
					CHANNELS 3 Zrotation Yrotation Xrotation
					JOINT head2
					{
						OFFSET -1.343195 19.680170 -2.821815
						CHANNELS 3 Zrotation Yrotation Xrotation
						End Site
						{
							OFFSET 0.996522 8.349460 4.932682
						}
					}
				}
				JOINT left_armpit
				{
					OFFSET -0.321492 5.345386 0.366822
					CHANNELS 3 Zrotation Yrotation Xrotation
					JOINT left_shoulder
					{
						OFFSET 7.203726 10.925008 -1.221471
						CHANNELS 3 Zrotation Yrotation Xrotation
						JOINT left_elbow
						{
							OFFSET 11.684943 4.169263 -2.710228
							CHANNELS 3 Zrotation Yrotation Xrotation
							JOINT left_wrist
							{
								OFFSET 25.765632 -1.586904 -2.059592
								CHANNELS 3 Zrotation Yrotation Xrotation
								JOINT left_hand
								{
									OFFSET 0.000000 0.000000 0.000000
									CHANNELS 3 Zrotation Yrotation Xrotation
									JOINT left_thumb1
									{
										OFFSET 26.120297 1.241024 -0.845988
										CHANNELS 3 Zrotation Yrotation Xrotation
										JOINT left_thumb2
										{
											OFFSET 4.010438 -1.568731 2.949141
											CHANNELS 3 Zrotation Yrotation Xrotation
											JOINT left_thumb3
											{
												OFFSET 1.830585 -1.071685 2.356435
												CHANNELS 3 Zrotation Yrotation Xrotation
												JOINT left_thumb4
												{
													OFFSET 2.278410 -1.212398 1.778853
													CHANNELS 3 Zrotation Yrotation Xrotation
													End Site
													{
														OFFSET 1.806060 -0.869962 1.000329
													}
												}
											}
										}
									}
									JOINT left_index1
									{
										OFFSET 26.120297 1.241024 -0.845988
										CHANNELS 3 Zrotation Yrotation Xrotation
										JOINT left_index2
										{
											OFFSET 9.224754 0.370886 2.351526
											CHANNELS 3 Zrotation Yrotation Xrotation
											JOINT left_index3
											{
												OFFSET 4.174717 0.138165 0.167353
												CHANNELS 3 Zrotation Yrotation Xrotation
												JOINT left_index4
												{
													OFFSET 2.188607 -0.573196 -0.004836
													CHANNELS 3 Zrotation Yrotation Xrotation
													End Site
													{
														OFFSET 1.957913 -0.318347 -0.089755
													}
												}
											}
										}
									}
									JOINT left_middle1
									{
										OFFSET 26.120297 1.241024 -0.845988
										CHANNELS 3 Zrotation Yrotation Xrotation
										JOINT left_middle2
										{
											OFFSET 8.998380 0.538766 0.086803
											CHANNELS 3 Zrotation Yrotation Xrotation
											JOINT left_middle3
											{
												OFFSET 4.406943 0.062665 -0.445785
												CHANNELS 3 Zrotation Yrotation Xrotation
												JOINT left_middle4
												{
													OFFSET 2.270577 -0.985050 -0.004172
													CHANNELS 3 Zrotation Yrotation Xrotation
													End Site
													{
														OFFSET 1.963791 -0.757752 -0.034084
													}
												}
											}
										}
									}
									JOINT left_ring1
									{
										OFFSET 26.120297 1.241024 -0.845988
										CHANNELS 3 Zrotation Yrotation Xrotation
										JOINT left_ring2
										{
											OFFSET 8.568142 0.268580 -1.678046
											CHANNELS 3 Zrotation Yrotation Xrotation
											JOINT left_ring3
											{
												OFFSET 3.719284 -0.073824 -0.884432
												CHANNELS 3 Zrotation Yrotation Xrotation
												JOINT left_ring4
												{
													OFFSET 2.014142 -1.218435 -0.180985
													CHANNELS 3 Zrotation Yrotation Xrotation
													End Site
													{
														OFFSET 1.641716 -1.060958 -0.129054
													}
												}
											}
										}
									}
									JOINT left_little1
									{
										OFFSET 26.120297 1.241024 -0.845988
										CHANNELS 3 Zrotation Yrotation Xrotation
										JOINT left_little2
										{
											OFFSET 7.682598 -0.146797 -3.179139
											CHANNELS 3 Zrotation Yrotation Xrotation
											JOINT left_little3
											{
												OFFSET 2.854990 -0.493432 -1.266199
												CHANNELS 3 Zrotation Yrotation Xrotation
												JOINT left_little4
												{
													OFFSET 1.425979 -0.731867 -0.398099
													CHANNELS 3 Zrotation Yrotation Xrotation
													End Site
													{
														OFFSET 1.230221 -0.832650 -0.141236
													}
												}
											}
										}
									}
								}
							}
						}
					}
				}
				JOINT right_armpit
				{
					OFFSET -0.321492 5.345386 0.366822
					CHANNELS 3 Zrotation Yrotation Xrotation
					JOINT right_shoulder
					{
						OFFSET -8.390868 10.803578 -1.603465
						CHANNELS 3 Zrotation Yrotation Xrotation
						JOINT right_elbow
						{
							OFFSET -10.829505 4.345781 -1.654356
							CHANNELS 3 Zrotation Yrotation Xrotation
							JOINT right_wrist
							{
								OFFSET -26.072639 -1.460885 -2.859779
								CHANNELS 3 Zrotation Yrotation Xrotation
								JOINT right_hand
								{
									OFFSET 0.000000 0.000000 0.000000
									CHANNELS 3 Zrotation Yrotation Xrotation
									JOINT right_thumb1
									{
										OFFSET -26.819388 0.939052 -0.515718
										CHANNELS 3 Zrotation Yrotation Xrotation
										JOINT right_thumb2
										{
											OFFSET -3.615894 -1.789589 3.237802
											CHANNELS 3 Zrotation Yrotation Xrotation
											JOINT right_thumb3
											{
												OFFSET -1.877298 -1.039407 2.551711
												CHANNELS 3 Zrotation Yrotation Xrotation
												JOINT right_thumb4
												{
													OFFSET -2.393686 -1.286209 2.029124
													CHANNELS 3 Zrotation Yrotation Xrotation
													End Site
													{
														OFFSET -2.016763 -1.054939 1.071380
													}
												}
											}
										}
									}
									JOINT right_index1
									{
										OFFSET -26.819388 0.939052 -0.515718
										CHANNELS 3 Zrotation Yrotation Xrotation
										JOINT right_index2
										{
											OFFSET -9.269798 -0.026519 2.485814
											CHANNELS 3 Zrotation Yrotation Xrotation
											JOINT right_index3
											{
												OFFSET -4.377712 -0.056954 0.167889
												CHANNELS 3 Zrotation Yrotation Xrotation
												JOINT right_index4
												{
													OFFSET -2.318143 -0.734734 0.048430
													CHANNELS 3 Zrotation Yrotation Xrotation
													End Site
													{
														OFFSET -1.995365 -0.429565 -0.017864
													}
												}
											}
										}
									}
									JOINT right_middle1
									{
										OFFSET -26.819388 0.939052 -0.515718
										CHANNELS 3 Zrotation Yrotation Xrotation
										JOINT right_middle2
										{
											OFFSET -9.057910 0.003390 -0.007864
											CHANNELS 3 Zrotation Yrotation Xrotation
											JOINT right_middle3
											{
												OFFSET -4.700356 -0.215712 -0.385423
												CHANNELS 3 Zrotation Yrotation Xrotation
												JOINT right_middle4
												{
													OFFSET -2.378063 -1.156565 0.065107
													CHANNELS 3 Zrotation Yrotation Xrotation
													End Site
													{
														OFFSET -1.933497 -0.907626 0.022175
													}
												}
											}
										}
									}
									JOINT right_ring1
									{
										OFFSET -26.819388 0.939052 -0.515718
										CHANNELS 3 Zrotation Yrotation Xrotation
										JOINT right_ring2
										{
											OFFSET -8.561647 -0.387421 -1.783286
											CHANNELS 3 Zrotation Yrotation Xrotation
											JOINT right_ring3
											{
												OFFSET -3.881278 -0.315173 -0.917690
												CHANNELS 3 Zrotation Yrotation Xrotation
												JOINT right_ring4
												{
													OFFSET -2.158916 -1.420313 -0.103601
													CHANNELS 3 Zrotation Yrotation Xrotation
													End Site
													{
														OFFSET -1.630479 -1.125670 -0.087972
													}
												}
											}
										}
									}
									JOINT right_little1
									{
										OFFSET -26.819388 0.939052 -0.515718
										CHANNELS 3 Zrotation Yrotation Xrotation
										JOINT right_little2
										{
											OFFSET -7.656273 -0.914094 -3.404004
											CHANNELS 3 Zrotation Yrotation Xrotation
											JOINT right_little3
											{
												OFFSET -2.870307 -0.708213 -1.202052
												CHANNELS 3 Zrotation Yrotation Xrotation
												JOINT right_little4
												{
													OFFSET -1.528629 -0.902921 -0.372664
													CHANNELS 3 Zrotation Yrotation Xrotation
													End Site
													{
														OFFSET -1.211598 -0.937119 -0.063842
													}
												}
											}
										}
									}
								}
							}
						}
					}
				}
			}
		}
	}
}
MOTION
Frames: 4
Frame Time: 0.071428
32.103449 4.756210 151.016846 0.0 0.0 0.0 3.357506 30.751765 -168.870469 3.763221 -0.162521 -29.316687 -0.033529 0.000191 0.019630 0.000000 0.000000 -0.000000 3.357506 30.751765 -168.870469 0.212469 0.280921 -20.782640 -0.031548 -0.000162 0.123282 0.000000 0.000000 0.174235 3.357506 30.751765 -168.870469 -0.553438 -0.221976 0.798516 -1.283733 -0.011533 1.026812 -0.934108 -0.053595 0.819525 -4.346123 13.869442 5.522155 -0.934108 -0.053595 0.819525 -20.175407 -1.136434 -0.502057 -37.922998 -16.323471 0.147825 73.727710 -139.660146 -0.522006 0.000000 0.000000 0.000000 0.000000 0.000000 0.000000 0.000000 0.000000 0.000000 0.000000 0.000000 0.000000 0.000000 0.000000 0.000000 0.000000 0.000000 0.000000 0.000000 0.000000 0.000000 0.000000 0.000000 0.000000 0.000000 0.000000 0.000000 0.000000 0.000000 0.000000 0.000000 0.000000 0.000000 0.000000 0.000000 0.000000 0.000000 0.000000 0.000000 0.000000 0.000000 0.000000 0.000000 0.000000 0.000000 0.000000 0.000000 0.000000 0.000000 0.000000 0.000000 0.000000 0.000000 0.000000 0.000000 0.000000 0.000000 0.000000 0.000000 0.000000 0.000000 0.000000 0.000000 -0.934108 -0.053595 0.819525 15.864542 -0.385054 -0.663103 43.846004 -2.471768 -0.136967 -64.497088 126.129628 -0.129389 0.000000 0.000000 0.000000 0.000000 0.000000 0.000000 0.000000 0.000000 0.000000 0.000000 0.000000 0.000000 0.000000 0.000000 0.000000 0.000000 0.000000 0.000000 0.000000 0.000000 0.000000 0.000000 0.000000 0.000000 0.000000 0.000000 0.000000 0.000000 0.000000 0.000000 0.000000 0.000000 0.000000 0.000000 0.000000 0.000000 0.000000 0.000000 0.000000 0.000000 0.000000 0.000000 0.000000 0.000000 0.000000 0.000000 0.000000 0.000000 0.000000 0.000000 0.000000 0.000000 0.000000 0.000000 0.000000 0.000000 0.000000 0.000000 0.000000 0.000000 0.000000 0.000000 0.000000
33.161543 9.333826 147.191148 0.0 0.0 0.0 4.998451 31.948689 -168.157528 8.997921 0.178546 -30.620945 -0.005329 0.000014 0.024176 0.000000 0.000000 -0.000000 4.998451 31.948689 -168.157528 -6.505713 0.003827 -11.061329 -0.007714 -0.000454 0.181397 0.000000 0.000000 0.254136 4.998451 31.948689 -168.157528 -0.621622 -0.265806 0.740181 -1.331578 -0.062091 1.061763 -0.988539 -0.105011 0.859012 0.564233 11.044821 5.801369 -0.988539 -0.105011 0.859012 -17.827430 2.170826 -1.769160 -40.189961 -11.174301 -0.581400 -95.620633 -39.493660 0.680052 0.000000 0.000000 0.000000 0.000000 0.000000 0.000000 0.000000 0.000000 0.000000 0.000000 0.000000 0.000000 0.000000 0.000000 0.000000 0.000000 0.000000 0.000000 0.000000 0.000000 0.000000 0.000000 0.000000 0.000000 0.000000 0.000000 0.000000 0.000000 0.000000 0.000000 0.000000 0.000000 0.000000 0.000000 0.000000 0.000000 0.000000 0.000000 0.000000 0.000000 0.000000 0.000000 0.000000 0.000000 0.000000 0.000000 0.000000 0.000000 0.000000 0.000000 0.000000 0.000000 0.000000 0.000000 0.000000 0.000000 0.000000 0.000000 0.000000 0.000000 0.000000 0.000000 0.000000 -0.988539 -0.105011 0.859012 10.584836 -4.509120 -1.863374 48.883349 -1.482736 -0.605919 91.132249 49.711582 0.572738 0.000000 0.000000 0.000000 0.000000 0.000000 0.000000 0.000000 0.000000 0.000000 0.000000 0.000000 0.000000 0.000000 0.000000 0.000000 0.000000 0.000000 0.000000 0.000000 0.000000 0.000000 0.000000 0.000000 0.000000 0.000000 0.000000 0.000000 0.000000 0.000000 0.000000 0.000000 0.000000 0.000000 0.000000 0.000000 0.000000 0.000000 0.000000 0.000000 0.000000 0.000000 0.000000 0.000000 0.000000 0.000000 0.000000 0.000000 0.000000 0.000000 0.000000 0.000000 0.000000 0.000000 0.000000 0.000000 0.000000 0.000000 0.000000 0.000000 0.000000 0.000000 0.000000 0.000000
35.039299 12.418996 146.395781 0.0 0.0 0.0 5.142484 33.670504 -166.756797 7.680287 0.093696 -33.606177 -0.028421 0.000546 0.065530 0.000000 0.000000 -0.000000 5.142484 33.670504 -166.756797 -5.617088 0.041441 -20.729770 -0.018894 -0.000481 0.200066 0.000000 0.000000 0.269440 5.142484 33.670504 -166.756797 -0.603052 -0.339747 0.812733 -1.311375 -0.133269 1.123076 -0.964877 -0.177578 0.923753 1.014774 11.966032 5.727770 -0.964877 -0.177578 0.923753 -16.000926 1.452518 -0.305773 -39.636893 -9.583190 0.119319 -81.249280 -43.649181 0.722655 0.000000 0.000000 0.000000 0.000000 0.000000 0.000000 0.000000 0.000000 0.000000 0.000000 0.000000 0.000000 0.000000 0.000000 0.000000 0.000000 0.000000 0.000000 0.000000 0.000000 0.000000 0.000000 0.000000 0.000000 0.000000 0.000000 0.000000 0.000000 0.000000 0.000000 0.000000 0.000000 0.000000 0.000000 0.000000 0.000000 0.000000 0.000000 0.000000 0.000000 0.000000 0.000000 0.000000 0.000000 0.000000 0.000000 0.000000 0.000000 0.000000 0.000000 0.000000 0.000000 0.000000 0.000000 0.000000 0.000000 0.000000 0.000000 0.000000 0.000000 0.000000 0.000000 0.000000 -0.964877 -0.177578 0.923753 12.447379 -4.606537 -1.699339 50.362806 -1.007364 -0.021068 77.486886 53.993426 0.524600 0.000000 0.000000 0.000000 0.000000 0.000000 0.000000 0.000000 0.000000 0.000000 0.000000 0.000000 0.000000 0.000000 0.000000 0.000000 0.000000 0.000000 0.000000 0.000000 0.000000 0.000000 0.000000 0.000000 0.000000 0.000000 0.000000 0.000000 0.000000 0.000000 0.000000 0.000000 0.000000 0.000000 0.000000 0.000000 0.000000 0.000000 0.000000 0.000000 0.000000 0.000000 0.000000 0.000000 0.000000 0.000000 0.000000 0.000000 0.000000 0.000000 0.000000 0.000000 0.000000 0.000000 0.000000 0.000000 0.000000 0.000000 0.000000 0.000000 0.000000 0.000000 0.000000 0.000000
37.152328 14.232362 143.617036 0.0 0.0 0.0 5.261683 33.054468 -165.203777 6.456617 -0.011192 -38.581665 -0.004748 -0.000149 0.012704 0.000000 0.000000 -0.000000 5.261683 33.054468 -165.203777 -6.782929 -0.000421 -30.178973 0.015418 -0.000464 0.163074 0.000000 0.000000 0.230311 5.261683 33.054468 -165.203777 -0.524381 -0.181459 0.857407 -1.266540 0.034844 1.076399 -0.914748 -0.008011 0.860831 2.666521 10.900725 5.103317 -0.914748 -0.008011 0.860831 -18.274362 0.979456 2.646792 -36.738163 -12.436606 2.505930 -63.973245 -35.707720 1.782621 0.000000 0.000000 0.000000 0.000000 0.000000 0.000000 0.000000 0.000000 0.000000 0.000000 0.000000 0.000000 0.000000 0.000000 0.000000 0.000000 0.000000 0.000000 0.000000 0.000000 0.000000 0.000000 0.000000 0.000000 0.000000 0.000000 0.000000 0.000000 0.000000 0.000000 0.000000 0.000000 0.000000 0.000000 0.000000 0.000000 0.000000 0.000000 0.000000 0.000000 0.000000 0.000000 0.000000 0.000000 0.000000 0.000000 0.000000 0.000000 0.000000 0.000000 0.000000 0.000000 0.000000 0.000000 0.000000 0.000000 0.000000 0.000000 0.000000 0.000000 0.000000 0.000000 0.000000 -0.914748 -0.008011 0.860831 13.620432 -3.532265 -4.291873 47.192309 -3.733592 -3.238099 235.198591 141.197757 -1.360119 0.000000 0.000000 0.000000 0.000000 0.000000 0.000000 0.000000 0.000000 0.000000 0.000000 0.000000 0.000000 0.000000 0.000000 0.000000 0.000000 0.000000 0.000000 0.000000 0.000000 0.000000 0.000000 0.000000 0.000000 0.000000 0.000000 0.000000 0.000000 0.000000 0.000000 0.000000 0.000000 0.000000 0.000000 0.000000 0.000000 0.000000 0.000000 0.000000 0.000000 0.000000 0.000000 0.000000 0.000000 0.000000 0.000000 0.000000 0.000000 0.000000 0.000000 0.000000 0.000000 0.000000 0.000000 0.000000 0.000000 0.000000 0.000000 0.000000 0.000000 0.000000 0.000000 0.000000
